<?xml version="1.0" encoding="UTF-8" standalone="no"?>
<!-- Created with Inkscape (http://www.inkscape.org/) -->

<svg
   width="39.999996mm"
   height="30.853989mm"
   viewBox="0 0 39.999996 30.853989"
   version="1.1"
   id="svg19178"
   inkscape:version="1.2.2 (b0a8486541, 2022-12-01)"
   sodipodi:docname="ignLiber.svg"
   xmlns:inkscape="http://www.inkscape.org/namespaces/inkscape"
   xmlns:sodipodi="http://sodipodi.sourceforge.net/DTD/sodipodi-0.dtd"
   xmlns="http://www.w3.org/2000/svg"
   xmlns:svg="http://www.w3.org/2000/svg">
  <sodipodi:namedview
     id="namedview19180"
     pagecolor="#ffffff"
     bordercolor="#666666"
     borderopacity="1.0"
     inkscape:showpageshadow="2"
     inkscape:pageopacity="0.0"
     inkscape:pagecheckerboard="0"
     inkscape:deskcolor="#d1d1d1"
     inkscape:document-units="mm"
     showgrid="false"
     inkscape:zoom="2.8061183"
     inkscape:cx="153.77114"
     inkscape:cy="130.2511"
     inkscape:window-width="1920"
     inkscape:window-height="1062"
     inkscape:window-x="0"
     inkscape:window-y="1"
     inkscape:window-maximized="1"
     inkscape:current-layer="layer1" />
  <defs
     id="defs19175" />
  <g
     inkscape:label="Layer 1"
     inkscape:groupmode="layer"
     id="layer1"
     transform="translate(-158.94332,-82.415668)">
    <path
       d="m 176.59322,111.874 c -7.56988,2.23746 -14.2364,0.97568 -16.40566,-3.29505 -1.0523,-2.07246 -0.82695,-4.59994 0.41151,-7.20207 -1.70288,2.89333 -2.17318,5.7218 -1.03074,7.96905 2.12419,4.18588 9.17086,5.01263 17.02489,2.52807"
       style="fill:#45658d;fill-opacity:1;fill-rule:nonzero;stroke:none;stroke-width:0.0195959"
       id="path17516"
       inkscape:export-filename="ignLiber.png"
       inkscape:export-xdpi="150"
       inkscape:export-ydpi="150" />
    <path
       d="m 170.59297,88.769484 0.006,-0.07642 h -3.86626 l -0.82107,4.312268 c 1.29333,-1.462637 2.86492,-2.905873 4.68146,-4.235845"
       style="fill:#e7ba61;fill-opacity:1;fill-rule:nonzero;stroke:none;stroke-width:0.0195959"
       id="path17518" />
    <path
       d="m 191.00991,101.34474 -0.50754,2.34308 h 3.56449 l 1.27374,-6.469769 c -1.18752,1.419719 -2.64545,2.815729 -4.33069,4.126689"
       style="fill:#e7ba61;fill-opacity:1;fill-rule:nonzero;stroke:none;stroke-width:0.0195959"
       id="path17520" />
    <path
       d="m 193.33202,88.693061 -1.0425,6.619288 -3.15494,-6.619288 h -4.1798 l -2.92174,14.994759 h 3.66639 l 2.00857,-9.966852 3.43516,6.898732 -0.0823,0.3878 c 1.68524,-1.312142 3.14709,-2.710502 4.33068,-4.126893 l 1.59707,-8.187546 z m -15.98827,6.669653 -0.4899,2.590179 h 2.35934 l -0.5722,2.912147 c -0.38212,0.10817 -0.76228,0.18635 -1.13656,0.23672 -0.37428,0.0504 -0.75052,0.0752 -1.12284,0.0752 -1.15224,0 -2.04581,-0.33118 -2.6768,-0.9943 -0.63295,-0.662932 -0.9504,-1.593144 -0.9504,-2.791629 0,-1.807327 0.5428,-3.287992 1.62842,-4.439839 1.08365,-1.149884 2.48867,-1.726003 4.21703,-1.726003 0.78972,0 1.57355,0.117379 2.35346,0.351354 0.78188,0.233779 1.57943,0.588269 2.39658,1.064839 l 0.59179,-3.103397 c -0.88181,-0.369186 -1.7793,-0.646468 -2.69051,-0.834589 -0.90924,-0.186944 -1.81458,-0.280612 -2.71207,-0.280612 -1.61274,0 -3.04715,0.264544 -4.30325,0.793241 -1.2561,0.529872 -2.34367,1.329383 -3.26859,2.40069 -0.53889,0.627265 -0.98176,1.302932 -1.33252,2.023076 l 0.87005,-4.464722 c -1.81653,1.329776 -3.39596,2.759491 -4.68929,4.222518 l -2.00662,10.290183 h 3.86627 l 1.02878,-5.274028 c 0.098,1.641348 0.69958,2.955838 1.81262,3.943478 1.21691,1.08129 2.89039,1.62116 5.02046,1.62116 1.19731,0 2.32408,-0.11444 3.37442,-0.34665 1.05034,-0.23162 2.0654,-0.58435 3.04324,-1.05935 l 1.39522,-7.209716 h -6.00613"
       style="fill:#45658d;fill-opacity:1;fill-rule:nonzero;stroke:none;stroke-width:0.0195959"
       id="path17522" />
    <path
       d="m 175.68985,86.088181 c 9.68625,-4.915821 19.31761,-4.252892 22.01009,1.052495 1.05425,2.071088 0.8289,4.598759 -0.41151,7.20305 1.70288,-2.895094 2.17121,-5.724934 1.03074,-7.970033 -2.62193,-5.168803 -12.75691,-5.290494 -22.63716,-0.274734 l 0.008,-0.01078"
       style="fill:#45658d;fill-opacity:1;fill-rule:nonzero;stroke:none;stroke-width:0.0195959"
       id="path17524" />
    <path
       d="m 164.21843,105.27352 h 0.23123 l -0.32921,1.87552 h -0.22927 l 0.32725,-1.87552"
       style="fill:#45658d;fill-opacity:1;fill-rule:nonzero;stroke:none;stroke-width:0.0195959"
       id="path17526" />
    <path
       d="m 165.67244,106.29976 -0.14893,0.84928 h -0.20967 l 0.14893,-0.84046 c 0.006,-0.0392 0.0118,-0.0741 0.0157,-0.10425 0.004,-0.0302 0.006,-0.0541 0.006,-0.0715 0,-0.0704 -0.0196,-0.12522 -0.0607,-0.16461 -0.0392,-0.0394 -0.0941,-0.059 -0.16656,-0.059 -0.1117,0 -0.20772,0.0412 -0.28806,0.12365 -0.0803,0.0825 -0.13325,0.19459 -0.15873,0.33607 l -0.13912,0.78011 h -0.20772 l 0.24494,-1.40698 h 0.20968 l -0.0431,0.22104 c 0.0588,-0.0813 0.12737,-0.14403 0.20967,-0.18851 0.0803,-0.0443 0.16657,-0.0664 0.25671,-0.0664 0.10973,0 0.19791,0.0333 0.25866,0.10033 0.0607,0.0672 0.0921,0.16127 0.0921,0.28296 0,0.03 -0.002,0.0623 -0.006,0.0966 -0.002,0.0343 -0.008,0.0715 -0.0137,0.1117"
       style="fill:#45658d;fill-opacity:1;fill-rule:nonzero;stroke:none;stroke-width:0.0195959"
       id="path17528" />
    <path
       d="m 166.87955,105.7834 -0.0412,0.21869 c -0.0549,-0.0335 -0.11366,-0.0586 -0.17441,-0.0752 -0.0607,-0.0168 -0.12345,-0.0253 -0.18812,-0.0253 -0.10974,0 -0.19596,0.0208 -0.25867,0.0621 -0.0627,0.0416 -0.094,0.0978 -0.094,0.16912 0,0.0827 0.0725,0.14657 0.21947,0.19086 0.0118,0.003 0.0196,0.006 0.0255,0.007 l 0.0666,0.0227 c 0.13913,0.0427 0.23123,0.0876 0.27826,0.13443 0.0451,0.0468 0.0686,0.11091 0.0686,0.19204 0,0.14912 -0.0529,0.27062 -0.16068,0.36448 -0.10582,0.0937 -0.24496,0.1407 -0.41936,0.1407 -0.0666,0 -0.13717,-0.007 -0.21163,-0.0214 -0.0725,-0.0143 -0.15481,-0.0364 -0.24299,-0.0666 l 0.0412,-0.23848 c 0.0764,0.0433 0.15089,0.0764 0.2234,0.099 0.0745,0.0227 0.145,0.0339 0.21359,0.0339 0.1019,0 0.1842,-0.0241 0.24886,-0.0727 0.0627,-0.0486 0.0941,-0.11013 0.0941,-0.18459 0,-0.0803 -0.0823,-0.1454 -0.25083,-0.19479 l -0.0215,-0.006 -0.0706,-0.02 c -0.10582,-0.0309 -0.1842,-0.0717 -0.23319,-0.12247 -0.049,-0.0508 -0.0725,-0.11542 -0.0725,-0.194 0,-0.14991 0.0509,-0.26886 0.15285,-0.35684 0.0999,-0.088 0.23711,-0.13188 0.41151,-0.13188 0.0686,0 0.13717,0.006 0.20184,0.0188 0.0647,0.0126 0.12933,0.0313 0.19399,0.0564"
       style="fill:#45658d;fill-opacity:1;fill-rule:nonzero;stroke:none;stroke-width:0.0195959"
       id="path17530" />
    <path
       d="m 167.77704,105.74206 -0.0313,0.1795 h -0.41543 l -0.13326,0.76404 c -0.006,0.0282 -0.01,0.0521 -0.0118,0.0715 -0.002,0.0194 -0.002,0.0343 -0.002,0.0453 0,0.0535 0.0137,0.0925 0.0431,0.11679 0.0274,0.0243 0.0745,0.0364 0.13913,0.0364 h 0.20967 l -0.0353,0.19341 h -0.19791 c -0.12346,0 -0.21556,-0.0268 -0.27631,-0.0803 -0.0607,-0.0537 -0.0921,-0.13501 -0.0921,-0.24377 0,-0.0192 0.002,-0.0404 0.004,-0.0633 0.002,-0.0233 0.006,-0.0486 0.01,-0.076 l 0.13521,-0.76404 h -0.17636 l 0.0333,-0.1795 h 0.17244 l 0.0705,-0.39956 h 0.20772 l -0.0686,0.39956 h 0.41543"
       style="fill:#45658d;fill-opacity:1;fill-rule:nonzero;stroke:none;stroke-width:0.0195959"
       id="path17532" />
    <path
       d="m 168.00043,105.19416 h 0.20772 l -0.0509,0.29295 h -0.20771 z m -0.0941,0.5479 h 0.20772 l -0.24887,1.40698 h -0.20772 l 0.24887,-1.40698"
       style="fill:#45658d;fill-opacity:1;fill-rule:nonzero;stroke:none;stroke-width:0.0195959"
       id="path17534" />
    <path
       d="m 169.07037,105.74206 -0.0314,0.1795 h -0.41543 l -0.13521,0.76404 c -0.004,0.0282 -0.008,0.0521 -0.01,0.0715 -0.002,0.0194 -0.004,0.0343 -0.004,0.0453 0,0.0535 0.0157,0.0925 0.0431,0.11679 0.0294,0.0243 0.0764,0.0364 0.14109,0.0364 h 0.20968 l -0.0353,0.19341 h -0.19792 c -0.12541,0 -0.21751,-0.0268 -0.27826,-0.0803 -0.0588,-0.0537 -0.0901,-0.13501 -0.0901,-0.24377 0,-0.0192 0.002,-0.0404 0.004,-0.0633 0.002,-0.0233 0.006,-0.0486 0.01,-0.076 l 0.13522,-0.76404 h -0.17637 l 0.0313,-0.1795 h 0.17441 l 0.0705,-0.39956 h 0.20771 l -0.0705,0.39956 h 0.4174"
       style="fill:#45658d;fill-opacity:1;fill-rule:nonzero;stroke:none;stroke-width:0.0195959"
       id="path17536" />
    <path
       d="m 169.02334,106.59115 0.14892,-0.84909 h 0.20968 l -0.14893,0.84027 c -0.006,0.0412 -0.0118,0.0764 -0.0157,0.10582 -0.004,0.0292 -0.004,0.0535 -0.004,0.0729 0,0.0711 0.0176,0.12601 0.0568,0.165 0.0392,0.039 0.0941,0.0584 0.16657,0.0584 0.1117,0 0.20772,-0.0419 0.29002,-0.12542 0.0803,-0.0839 0.13325,-0.19655 0.15872,-0.33802 l 0.13914,-0.77894 h 0.20771 l -0.24495,1.40698 h -0.20772 l 0.0412,-0.22104 c -0.0568,0.0821 -0.12738,0.1454 -0.20968,0.19027 -0.0803,0.0447 -0.16657,0.0672 -0.25867,0.0672 -0.10974,0 -0.19596,-0.0337 -0.25866,-0.10112 -0.0608,-0.0674 -0.0921,-0.16146 -0.0921,-0.28198 0,-0.0251 0.002,-0.0566 0.006,-0.0943 0.004,-0.0376 0.01,-0.0768 0.0157,-0.11698"
       style="fill:#45658d;fill-opacity:1;fill-rule:nonzero;stroke:none;stroke-width:0.0195959"
       id="path17538" />
    <path
       d="m 171.18672,105.74206 -0.0314,0.1795 h -0.41543 l -0.13325,0.76404 c -0.006,0.0282 -0.01,0.0521 -0.0118,0.0715 -0.002,0.0194 -0.002,0.0343 -0.002,0.0453 0,0.0535 0.0137,0.0925 0.0431,0.11679 0.0294,0.0243 0.0745,0.0364 0.13913,0.0364 h 0.20968 l -0.0353,0.19341 h -0.19792 c -0.12345,0 -0.21555,-0.0268 -0.2763,-0.0803 -0.0607,-0.0537 -0.0921,-0.13501 -0.0921,-0.24377 0,-0.0192 0.002,-0.0404 0.004,-0.0633 0.002,-0.0233 0.006,-0.0486 0.01,-0.076 l 0.13522,-0.76404 h -0.17636 l 0.0333,-0.1795 h 0.17245 l 0.0705,-0.39956 h 0.20771 l -0.0686,0.39956 h 0.41543"
       style="fill:#45658d;fill-opacity:1;fill-rule:nonzero;stroke:none;stroke-width:0.0195959"
       id="path17540" />
    <path
       d="m 171.30822,106.60878 c 0,0.12738 0.0235,0.22261 0.0725,0.28591 0.0471,0.0631 0.11953,0.0948 0.21751,0.0948 0.13913,0 0.25475,-0.0676 0.34685,-0.20301 0.0902,-0.13521 0.13717,-0.30668 0.13717,-0.51439 0,-0.1215 -0.0255,-0.21301 -0.0745,-0.27513 -0.049,-0.0619 -0.11954,-0.0929 -0.21556,-0.0929 -0.0784,0 -0.14696,0.0204 -0.20967,0.0609 -0.0608,0.0406 -0.11562,0.10249 -0.16265,0.18518 -0.0353,0.0621 -0.0647,0.13286 -0.0823,0.21222 -0.0196,0.0798 -0.0294,0.16187 -0.0294,0.24632 z m 0.2665,0.57671 c -0.14893,0 -0.2665,-0.0508 -0.35272,-0.15265 -0.0862,-0.10171 -0.12934,-0.24044 -0.12934,-0.41641 0,-0.1021 0.0157,-0.20615 0.0451,-0.31216 0.0294,-0.10602 0.0686,-0.19499 0.11561,-0.2671 0.0745,-0.11209 0.15873,-0.19497 0.24887,-0.24867 0.0921,-0.0537 0.19596,-0.0803 0.31353,-0.0803 0.14306,0 0.26063,0.0498 0.34881,0.14932 0.0882,0.0997 0.1313,0.23005 0.1313,0.39074 0,0.1115 -0.0137,0.22241 -0.0431,0.33313 -0.0294,0.11033 -0.0686,0.20223 -0.11562,0.27493 -0.0745,0.11228 -0.15676,0.19518 -0.24886,0.24867 -0.0921,0.0537 -0.19596,0.0805 -0.31354,0.0805"
       style="fill:#45658d;fill-opacity:1;fill-rule:nonzero;stroke:none;stroke-width:0.0195959"
       id="path17542" />
    <path
       d="m 174.14374,106.86882 0.0882,-0.49107 h -0.37428 l 0.0353,-0.2085 h 0.59767 l -0.14696,0.82538 c -0.098,0.0609 -0.20772,0.10817 -0.32725,0.14128 -0.11758,0.0331 -0.23711,0.0496 -0.35665,0.0496 -0.21164,0 -0.3782,-0.0652 -0.49577,-0.19596 -0.11954,-0.1305 -0.18029,-0.31236 -0.18029,-0.54535 0,-0.19341 0.0372,-0.37742 0.10974,-0.55202 0.0725,-0.17459 0.17244,-0.32019 0.30177,-0.43659 0.0803,-0.0729 0.16853,-0.12698 0.26259,-0.16265 0.096,-0.0355 0.2038,-0.0533 0.31941,-0.0533 0.10582,0 0.20772,0.0147 0.30374,0.0445 0.096,0.0298 0.19008,0.0743 0.2763,0.13384 l -0.045,0.27003 c -0.0666,-0.0786 -0.14698,-0.13874 -0.23711,-0.18028 -0.0921,-0.0413 -0.19009,-0.0621 -0.29198,-0.0621 -0.1215,0 -0.22732,0.0255 -0.31746,0.0758 -0.0901,0.0508 -0.17244,0.12953 -0.24495,0.23574 -0.0608,0.0903 -0.10973,0.19694 -0.14304,0.31961 -0.0353,0.12267 -0.0529,0.24769 -0.0529,0.37506 0,0.17499 0.0392,0.30687 0.11954,0.39506 0.0823,0.0884 0.20183,0.13266 0.36252,0.13266 0.0784,0 0.15677,-0.009 0.23123,-0.0284 0.0745,-0.0186 0.14305,-0.0463 0.20576,-0.0823"
       style="fill:#45658d;fill-opacity:1;fill-rule:nonzero;stroke:none;stroke-width:0.0195959"
       id="path17544" />
    <path
       d="m 175.6585,106.31994 c 0.002,-0.0135 0.004,-0.0272 0.006,-0.0413 0,-0.0145 0.002,-0.0286 0.002,-0.0429 0,-0.10209 -0.0274,-0.18303 -0.0823,-0.2424 -0.0529,-0.0594 -0.12737,-0.0892 -0.21948,-0.0892 -0.10385,0 -0.194,0.0363 -0.27434,0.10857 -0.0784,0.0725 -0.13717,0.17538 -0.17832,0.30843 z m 0.18028,0.18087 h -0.96607 c -0.006,0.0319 -0.008,0.0568 -0.01,0.0752 -0.002,0.0186 -0.002,0.0345 -0.002,0.0478 0,0.1164 0.0314,0.20653 0.096,0.27002 0.0647,0.0637 0.15481,0.0956 0.27238,0.0956 0.0901,0 0.17636,-0.0114 0.25671,-0.0339 0.0823,-0.0225 0.15676,-0.0556 0.22535,-0.0994 l -0.0392,0.22868 c -0.0745,0.0335 -0.15285,0.0588 -0.23124,0.0754 -0.0803,0.0168 -0.16068,0.0251 -0.24298,0.0251 -0.17441,0 -0.30962,-0.0468 -0.40368,-0.14011 -0.096,-0.0935 -0.14305,-0.22594 -0.14305,-0.3976 0,-0.14658 0.0235,-0.28277 0.0705,-0.40877 0.047,-0.1262 0.11561,-0.23848 0.20771,-0.33744 0.0588,-0.0621 0.12934,-0.10974 0.20968,-0.14325 0.0823,-0.0335 0.16656,-0.0502 0.25866,-0.0502 0.14305,0 0.25671,0.0478 0.34293,0.14324 0.0843,0.0954 0.12541,0.22359 0.12541,0.38427 0,0.0386 -0.002,0.0798 -0.006,0.12385 -0.006,0.0439 -0.0118,0.0911 -0.0216,0.14128"
       style="fill:#45658d;fill-opacity:1;fill-rule:nonzero;stroke:none;stroke-width:0.0195959"
       id="path17546" />
    <path
       d="m 176.16212,106.60878 c 0,0.12738 0.0235,0.22261 0.0725,0.28591 0.049,0.0631 0.1215,0.0948 0.21751,0.0948 0.13913,0 0.25475,-0.0676 0.34685,-0.20301 0.0921,-0.13521 0.13717,-0.30668 0.13717,-0.51439 0,-0.1215 -0.0235,-0.21301 -0.0725,-0.27513 -0.049,-0.0619 -0.1215,-0.0929 -0.21556,-0.0929 -0.0784,0 -0.14893,0.0204 -0.20968,0.0609 -0.0607,0.0406 -0.11561,0.10249 -0.1646,0.18518 -0.0353,0.0621 -0.0627,0.13286 -0.0823,0.21222 -0.0196,0.0798 -0.0294,0.16187 -0.0294,0.24632 z m 0.2665,0.57671 c -0.14697,0 -0.26455,-0.0508 -0.35077,-0.15265 -0.0862,-0.10171 -0.12933,-0.24044 -0.12933,-0.41641 0,-0.1021 0.0137,-0.20615 0.0431,-0.31216 0.0313,-0.10602 0.0686,-0.19499 0.11562,-0.2671 0.0764,-0.11209 0.15873,-0.19497 0.25082,-0.24867 0.0921,-0.0537 0.19596,-0.0803 0.31158,-0.0803 0.14501,0 0.26062,0.0498 0.34881,0.14932 0.0882,0.0997 0.13325,0.23005 0.13325,0.39074 0,0.1115 -0.0157,0.22241 -0.0451,0.33313 -0.0294,0.11033 -0.0666,0.20223 -0.11561,0.27493 -0.0725,0.11228 -0.15481,0.19518 -0.24887,0.24867 -0.0921,0.0537 -0.19596,0.0805 -0.31354,0.0805"
       style="fill:#45658d;fill-opacity:1;fill-rule:nonzero;stroke:none;stroke-width:0.0195959"
       id="path17548" />
    <path
       d="m 178.19617,106.25841 c 0,-0.11405 -0.0235,-0.20184 -0.0725,-0.26396 -0.049,-0.0619 -0.11758,-0.0929 -0.20576,-0.0929 -0.0568,0 -0.10777,0.0122 -0.15873,0.0364 -0.049,0.0243 -0.0901,0.0582 -0.12737,0.10171 -0.0568,0.0721 -0.1019,0.15696 -0.13325,0.25454 -0.0333,0.0976 -0.049,0.19812 -0.049,0.30217 0,0.11542 0.0255,0.20419 0.0745,0.26611 0.049,0.0621 0.11758,0.0931 0.20968,0.0931 0.13129,0 0.24103,-0.0664 0.32921,-0.1991 0.0882,-0.13286 0.13325,-0.29884 0.13325,-0.49812 z m 0.31353,-0.51635 -0.21751,1.23238 c -0.0412,0.23868 -0.11954,0.41661 -0.23711,0.53399 -0.11758,0.11719 -0.27435,0.17578 -0.47422,0.17578 -0.0725,0 -0.13914,-0.006 -0.2038,-0.0182 -0.0627,-0.0122 -0.11954,-0.0308 -0.1744,-0.0558 l 0.0392,-0.22496 c 0.0509,0.037 0.10385,0.0641 0.16265,0.0817 0.0568,0.0177 0.11757,0.0264 0.18224,0.0264 0.13325,0 0.24103,-0.04 0.32529,-0.11993 0.0843,-0.0802 0.14109,-0.19518 0.16852,-0.34489 l 0.0176,-0.10562 c -0.0588,0.0739 -0.12541,0.12992 -0.20184,0.16833 -0.0784,0.0384 -0.16068,0.0578 -0.24887,0.0578 -0.12933,0 -0.22927,-0.047 -0.30177,-0.14148 -0.0745,-0.0941 -0.1117,-0.22359 -0.1117,-0.38859 0,-0.12992 0.0235,-0.2571 0.0666,-0.38134 0.045,-0.12443 0.10777,-0.23476 0.18812,-0.33117 0.0529,-0.0635 0.11561,-0.11248 0.18616,-0.14697 0.0725,-0.0343 0.14697,-0.0513 0.22535,-0.0513 0.0843,0 0.15873,0.0219 0.22143,0.0658 0.0647,0.0441 0.1117,0.1062 0.14305,0.18675 l 0.0333,-0.21869 h 0.21164"
       style="fill:#45658d;fill-opacity:1;fill-rule:nonzero;stroke:none;stroke-width:0.0195959"
       id="path17550" />
    <path
       d="m 179.50125,105.95565 c -0.0215,-0.0126 -0.0451,-0.0222 -0.0725,-0.0288 -0.0255,-0.007 -0.0549,-0.0102 -0.0862,-0.0102 -0.11169,0 -0.20771,0.0467 -0.29197,0.14011 -0.0823,0.0933 -0.13717,0.21829 -0.16461,0.37506 l -0.12737,0.71721 h -0.20772 l 0.24691,-1.40698 h 0.20968 l -0.0412,0.21869 c 0.0568,-0.0813 0.1215,-0.14383 0.19792,-0.18714 0.0764,-0.0437 0.15677,-0.0654 0.24495,-0.0654 0.0235,0 0.0451,10e-4 0.0666,0.004 0.0215,0.003 0.0431,0.008 0.0647,0.0145 l -0.0392,0.22868"
       style="fill:#45658d;fill-opacity:1;fill-rule:nonzero;stroke:none;stroke-width:0.0195959"
       id="path17552" />
    <path
       d="m 180.38894,105.09128 h 0.2234 l -0.45071,0.47226 h -0.1744 z m -0.0784,1.35055 h -0.20771 c -0.17049,0 -0.29591,0.0253 -0.3782,0.0758 -0.0823,0.0508 -0.12346,0.12933 -0.12346,0.23574 0,0.0735 0.0215,0.13129 0.0627,0.17323 0.0412,0.0419 0.0999,0.0629 0.17441,0.0629 0.11366,0 0.21164,-0.0451 0.2959,-0.13501 0.0843,-0.0901 0.13913,-0.21047 0.16656,-0.36135 z m 0.22536,-0.0956 -0.1411,0.80284 h -0.20771 l 0.0372,-0.21359 c -0.0607,0.0839 -0.12933,0.14638 -0.20772,0.18772 -0.0784,0.0416 -0.16656,0.0623 -0.26062,0.0623 -0.10778,0 -0.19792,-0.0367 -0.2665,-0.10993 -0.0686,-0.0733 -0.1019,-0.16716 -0.1019,-0.28199 0,-0.16421 0.0588,-0.29393 0.17636,-0.38956 0.11757,-0.0954 0.28022,-0.14305 0.48794,-0.14305 h 0.28806 l 0.0118,-0.0617 c 0.002,-0.007 0.004,-0.0139 0.004,-0.0219 0.002,-0.008 0.002,-0.0202 0.002,-0.0368 0,-0.0747 -0.0274,-0.13266 -0.0823,-0.17421 -0.0549,-0.0413 -0.13129,-0.0621 -0.23123,-0.0621 -0.0686,0 -0.13717,0.01 -0.20772,0.0288 -0.0725,0.0194 -0.14501,0.0482 -0.22143,0.0866 l 0.0372,-0.2134 c 0.0784,-0.0326 0.15676,-0.057 0.23123,-0.0735 0.0745,-0.0163 0.14697,-0.0245 0.21751,-0.0245 0.14893,0 0.26258,0.0359 0.34097,0.10797 0.0764,0.0719 0.11561,0.17675 0.11561,0.31412 0,0.0274 -0.002,0.06 -0.006,0.0974 -0.004,0.0372 -0.008,0.0766 -0.0157,0.11856"
       style="fill:#45658d;fill-opacity:1;fill-rule:nonzero;stroke:none;stroke-width:0.0195959"
       id="path17554" />
    <path
       d="m 181.68815,105.19416 -0.0333,0.19243 h -0.19792 c -0.0745,0 -0.12933,0.0164 -0.1646,0.0496 -0.0333,0.0331 -0.0608,0.0935 -0.0764,0.18166 l -0.0235,0.12424 h 0.34293 l -0.0313,0.17949 H 181.163 l -0.21555,1.22749 h -0.20968 l 0.21752,-1.22749 h -0.19988 l 0.0294,-0.17949 h 0.19792 l 0.0177,-0.0982 c 0.0294,-0.16558 0.0803,-0.28198 0.15089,-0.3492 0.0725,-0.067 0.18616,-0.10052 0.339,-0.10052 h 0.19793"
       style="fill:#45658d;fill-opacity:1;fill-rule:nonzero;stroke:none;stroke-width:0.0195959"
       id="path17556" />
    <path
       d="m 181.69207,105.19416 h 0.20772 l -0.0509,0.29295 h -0.20968 z m -0.096,0.5479 h 0.20772 l -0.24691,1.40698 h -0.20772 l 0.24691,-1.40698"
       style="fill:#45658d;fill-opacity:1;fill-rule:nonzero;stroke:none;stroke-width:0.0195959"
       id="path17558" />
    <path
       d="m 183.02263,105.79614 -0.0412,0.22868 c -0.049,-0.0402 -0.1019,-0.0705 -0.15873,-0.0905 -0.0568,-0.0202 -0.11561,-0.0302 -0.17636,-0.0302 -0.0647,0 -0.12933,0.0129 -0.18812,0.039 -0.0607,0.0261 -0.1117,0.0627 -0.15088,0.11052 -0.0647,0.0727 -0.11562,0.15834 -0.15089,0.25632 -0.0353,0.098 -0.0529,0.19909 -0.0529,0.30393 0,0.1264 0.0274,0.22085 0.0843,0.28257 0.0568,0.0619 0.14501,0.0931 0.26063,0.0931 0.0568,0 0.11757,-0.01 0.18224,-0.029 0.0647,-0.0192 0.13129,-0.048 0.20184,-0.0866 l -0.0392,0.22868 c -0.0588,0.0276 -0.12149,0.0484 -0.18616,0.0621 -0.0647,0.0137 -0.12933,0.0208 -0.19596,0.0208 -0.16852,0 -0.29785,-0.0468 -0.388,-0.14011 -0.0901,-0.0935 -0.13521,-0.22673 -0.13521,-0.39996 0,-0.14579 0.0235,-0.28002 0.0705,-0.40269 0.047,-0.12287 0.11757,-0.233 0.20967,-0.33098 0.0627,-0.067 0.13718,-0.11777 0.2234,-0.15226 0.0843,-0.0343 0.17832,-0.0513 0.27826,-0.0513 0.0588,0 0.11757,0.007 0.17636,0.0219 0.0568,0.0147 0.11561,0.0367 0.17637,0.066"
       style="fill:#45658d;fill-opacity:1;fill-rule:nonzero;stroke:none;stroke-width:0.0195959"
       id="path17560" />
    <path
       d="m 183.24798,106.60878 c 0,0.12738 0.0235,0.22261 0.0705,0.28591 0.049,0.0631 0.12149,0.0948 0.21947,0.0948 0.13913,0 0.25278,-0.0676 0.34489,-0.20301 0.0921,-0.13521 0.13717,-0.30668 0.13717,-0.51439 0,-0.1215 -0.0235,-0.21301 -0.0725,-0.27513 -0.049,-0.0619 -0.1215,-0.0929 -0.21556,-0.0929 -0.0784,0 -0.14893,0.0204 -0.20968,0.0609 -0.0607,0.0406 -0.11561,0.10249 -0.16264,0.18518 -0.0372,0.0621 -0.0647,0.13286 -0.0843,0.21222 -0.0196,0.0798 -0.0274,0.16187 -0.0274,0.24632 z m 0.26455,0.57671 c -0.14697,0 -0.26455,-0.0508 -0.35077,-0.15265 -0.0862,-0.10171 -0.12934,-0.24044 -0.12934,-0.41641 0,-0.1021 0.0137,-0.20615 0.0451,-0.31216 0.0294,-0.10602 0.0666,-0.19499 0.11366,-0.2671 0.0764,-0.11209 0.15873,-0.19497 0.25083,-0.24867 0.0921,-0.0537 0.19596,-0.0803 0.31353,-0.0803 0.14305,0 0.25867,0.0498 0.34685,0.14932 0.0882,0.0997 0.13325,0.23005 0.13325,0.39074 0,0.1115 -0.0157,0.22241 -0.0431,0.33313 -0.0294,0.11033 -0.0686,0.20223 -0.11562,0.27493 -0.0745,0.11228 -0.15677,0.19518 -0.24887,0.24867 -0.0921,0.0537 -0.19791,0.0805 -0.31549,0.0805"
       style="fill:#45658d;fill-opacity:1;fill-rule:nonzero;stroke:none;stroke-width:0.0195959"
       id="path17562" />
    <path
       d="m 185.20953,105.27352 h 0.30766 l 0.46638,1.60804 0.28218,-1.60804 h 0.22339 l -0.32921,1.87552 h -0.30766 l -0.46638,-1.61803 -0.28218,1.61803 h -0.22143 l 0.32725,-1.87552"
       style="fill:#45658d;fill-opacity:1;fill-rule:nonzero;stroke:none;stroke-width:0.0195959"
       id="path17564" />
    <path
       d="m 187.43954,106.44183 h -0.20772 c -0.17048,0 -0.29589,0.0253 -0.3782,0.0758 -0.0803,0.0508 -0.12149,0.12933 -0.12149,0.23574 0,0.0735 0.0196,0.13129 0.0607,0.17323 0.0431,0.0419 0.0999,0.0629 0.1744,0.0629 0.11365,0 0.21163,-0.0451 0.2959,-0.13501 0.0843,-0.0901 0.14109,-0.21047 0.16852,-0.36135 z m 0.22535,-0.0956 -0.14109,0.80284 h -0.20771 l 0.0372,-0.21359 c -0.0607,0.0839 -0.12933,0.14638 -0.20771,0.18772 -0.0784,0.0416 -0.1646,0.0623 -0.26062,0.0623 -0.10778,0 -0.19596,-0.0367 -0.26455,-0.10993 -0.0686,-0.0733 -0.10386,-0.16716 -0.10386,-0.28199 0,-0.16421 0.0588,-0.29393 0.17636,-0.38956 0.11758,-0.0954 0.28023,-0.14305 0.48794,-0.14305 h 0.29002 l 0.0118,-0.0617 c 0,-0.007 0.002,-0.0139 0.002,-0.0219 0.002,-0.008 0.002,-0.0202 0.002,-0.0368 0,-0.0747 -0.0274,-0.13266 -0.0823,-0.17421 -0.0549,-0.0413 -0.13129,-0.0621 -0.23123,-0.0621 -0.0666,0 -0.13718,0.01 -0.20772,0.0288 -0.0705,0.0194 -0.14501,0.0482 -0.21947,0.0866 l 0.0353,-0.2134 c 0.0803,-0.0326 0.15677,-0.057 0.23123,-0.0735 0.0745,-0.0163 0.14697,-0.0245 0.21751,-0.0245 0.14893,0 0.26259,0.0359 0.34098,0.10797 0.0784,0.0719 0.11757,0.17675 0.11757,0.31412 0,0.0274 -0.002,0.06 -0.006,0.0974 -0.004,0.0372 -0.01,0.0766 -0.0177,0.11856"
       style="fill:#45658d;fill-opacity:1;fill-rule:nonzero;stroke:none;stroke-width:0.0195959"
       id="path17566" />
    <path
       d="m 188.95234,105.79614 -0.0412,0.22868 c -0.0509,-0.0402 -0.1019,-0.0705 -0.15873,-0.0905 -0.0568,-0.0202 -0.11561,-0.0302 -0.17636,-0.0302 -0.0666,0 -0.12934,0.0129 -0.18812,0.039 -0.0607,0.0261 -0.1117,0.0627 -0.15089,0.11052 -0.0647,0.0727 -0.11562,0.15834 -0.15089,0.25632 -0.0353,0.098 -0.0529,0.19909 -0.0529,0.30393 0,0.1264 0.0274,0.22085 0.0843,0.28257 0.0568,0.0619 0.145,0.0931 0.26062,0.0931 0.0568,0 0.11758,-0.01 0.18224,-0.029 0.0647,-0.0192 0.1313,-0.048 0.20184,-0.0866 l -0.0392,0.22868 c -0.0607,0.0276 -0.1215,0.0484 -0.18616,0.0621 -0.0647,0.0137 -0.12934,0.0208 -0.19596,0.0208 -0.16853,0 -0.29786,-0.0468 -0.388,-0.14011 -0.0901,-0.0935 -0.13521,-0.22673 -0.13521,-0.39996 0,-0.14579 0.0235,-0.28002 0.0705,-0.40269 0.0471,-0.12287 0.11758,-0.233 0.20968,-0.33098 0.0627,-0.067 0.13717,-0.11777 0.22143,-0.15226 0.0862,-0.0343 0.17833,-0.0513 0.28022,-0.0513 0.0588,0 0.11758,0.007 0.17637,0.0219 0.0568,0.0147 0.11561,0.0367 0.17636,0.066"
       style="fill:#45658d;fill-opacity:1;fill-rule:nonzero;stroke:none;stroke-width:0.0195959"
       id="path17568" />
    <path
       d="m 189.27959,105.19416 h 0.20772 l -0.0509,0.29295 h -0.20772 z m -0.096,0.5479 h 0.20968 l -0.24887,1.40698 h -0.20772 l 0.24691,-1.40698"
       style="fill:#45658d;fill-opacity:1;fill-rule:nonzero;stroke:none;stroke-width:0.0195959"
       id="path17570" />
    <path
       d="m 189.6911,106.60878 c 0,0.12738 0.0235,0.22261 0.0725,0.28591 0.0471,0.0631 0.12149,0.0948 0.21751,0.0948 0.13914,0 0.25475,-0.0676 0.34685,-0.20301 0.0921,-0.13521 0.13717,-0.30668 0.13717,-0.51439 0,-0.1215 -0.0255,-0.21301 -0.0745,-0.27513 -0.049,-0.0619 -0.11954,-0.0929 -0.2136,-0.0929 -0.0803,0 -0.14893,0.0204 -0.21163,0.0609 -0.0608,0.0406 -0.11562,0.10249 -0.16265,0.18518 -0.0353,0.0621 -0.0627,0.13286 -0.0823,0.21222 -0.0196,0.0798 -0.0294,0.16187 -0.0294,0.24632 z m 0.26651,0.57671 c -0.14893,0 -0.26651,-0.0508 -0.35273,-0.15265 -0.0862,-0.10171 -0.12933,-0.24044 -0.12933,-0.41641 0,-0.1021 0.0157,-0.20615 0.0451,-0.31216 0.0294,-0.10602 0.0686,-0.19499 0.11561,-0.2671 0.0745,-0.11209 0.15873,-0.19497 0.25083,-0.24867 0.0921,-0.0537 0.19596,-0.0803 0.31158,-0.0803 0.145,0 0.26062,0.0498 0.3488,0.14932 0.0882,0.0997 0.13325,0.23005 0.13325,0.39074 0,0.1115 -0.0157,0.22241 -0.0451,0.33313 -0.0294,0.11033 -0.0666,0.20223 -0.11561,0.27493 -0.0745,0.11228 -0.15677,0.19518 -0.24887,0.24867 -0.0921,0.0537 -0.19595,0.0805 -0.31353,0.0805"
       style="fill:#45658d;fill-opacity:1;fill-rule:nonzero;stroke:none;stroke-width:0.0195959"
       id="path17572" />
    <path
       d="m 191.94659,106.29976 -0.14893,0.84928 h -0.20968 l 0.14893,-0.84046 c 0.008,-0.0392 0.0118,-0.0741 0.0157,-0.10425 0.006,-0.0302 0.008,-0.0541 0.008,-0.0715 0,-0.0704 -0.0216,-0.12522 -0.0608,-0.16461 -0.0412,-0.0394 -0.096,-0.059 -0.16657,-0.059 -0.11365,0 -0.20967,0.0412 -0.29002,0.12365 -0.0803,0.0825 -0.13325,0.19459 -0.15872,0.33607 l -0.13913,0.78011 h -0.20772 l 0.24495,-1.40698 h 0.20968 l -0.0431,0.22104 c 0.0588,-0.0813 0.12933,-0.14403 0.20968,-0.18851 0.0803,-0.0443 0.16656,-0.0664 0.2567,-0.0664 0.1117,0 0.19792,0.0333 0.25867,0.10033 0.0627,0.0672 0.0921,0.16127 0.0921,0.28296 0,0.03 -0.002,0.0623 -0.004,0.0966 -0.004,0.0343 -0.008,0.0715 -0.0157,0.1117"
       style="fill:#45658d;fill-opacity:1;fill-rule:nonzero;stroke:none;stroke-width:0.0195959"
       id="path17574" />
    <path
       d="m 193.01456,106.44183 h -0.20967 c -0.16853,0 -0.2959,0.0253 -0.37624,0.0758 -0.0823,0.0508 -0.12346,0.12933 -0.12346,0.23574 0,0.0735 0.0216,0.13129 0.0627,0.17323 0.0412,0.0419 0.0999,0.0629 0.1744,0.0629 0.1117,0 0.21164,-0.0451 0.2959,-0.13501 0.0843,-0.0901 0.13913,-0.21047 0.16656,-0.36135 z m 0.22536,-0.0956 -0.14109,0.80284 h -0.20968 l 0.0392,-0.21359 c -0.0607,0.0839 -0.13129,0.14638 -0.20771,0.18772 -0.0784,0.0416 -0.16656,0.0623 -0.26259,0.0623 -0.10777,0 -0.19595,-0.0367 -0.26454,-0.10993 -0.0686,-0.0733 -0.1019,-0.16716 -0.1019,-0.28199 0,-0.16421 0.0588,-0.29393 0.17636,-0.38956 0.11758,-0.0954 0.28022,-0.14305 0.48794,-0.14305 h 0.28806 l 0.0118,-0.0617 c 0.002,-0.007 0.002,-0.0139 0.004,-0.0219 0,-0.008 0.002,-0.0202 0.002,-0.0368 0,-0.0747 -0.0274,-0.13266 -0.0823,-0.17421 -0.0549,-0.0413 -0.13325,-0.0621 -0.23122,-0.0621 -0.0686,0 -0.13718,0.01 -0.20772,0.0288 -0.0725,0.0194 -0.14501,0.0482 -0.22144,0.0866 l 0.0372,-0.2134 c 0.0784,-0.0326 0.1548,-0.057 0.23123,-0.0735 0.0745,-0.0163 0.14697,-0.0245 0.21751,-0.0245 0.14893,0 0.26259,0.0359 0.34097,0.10797 0.0764,0.0719 0.11562,0.17675 0.11562,0.31412 0,0.0274 -0.002,0.06 -0.006,0.0974 -0.004,0.0372 -0.01,0.0766 -0.0157,0.11856"
       style="fill:#45658d;fill-opacity:1;fill-rule:nonzero;stroke:none;stroke-width:0.0195959"
       id="path17576" />
    <path
       d="m 193.71022,105.19416 h 0.20771 l -0.34292,1.95488 h -0.20772 l 0.34293,-1.95488"
       style="fill:#45658d;fill-opacity:1;fill-rule:nonzero;stroke:none;stroke-width:0.0195959"
       id="path17578" />
    <path
       d="m 169.35646,108.7706 c 0.0862,0 0.15285,-0.02 0.19793,-0.0606 0.0431,-0.0405 0.0666,-0.10014 0.0666,-0.17852 0,-0.0492 -0.0157,-0.0852 -0.0471,-0.10817 -0.0314,-0.0229 -0.0784,-0.0345 -0.14501,-0.0345 h -0.15873 l -0.0764,0.38173 z m -0.21359,0.26533 -0.10974,0.56338 h -0.38407 l 0.29002,-1.4887 h 0.56631 c 0.16461,0 0.28807,0.0308 0.37233,0.0919 0.0843,0.0611 0.12737,0.15129 0.12737,0.27023 0,0.12013 -0.0333,0.21928 -0.0999,0.29708 -0.0666,0.0778 -0.15677,0.12228 -0.27042,0.13345 0.0509,0.0108 0.0941,0.0372 0.12933,0.0794 0.0353,0.0422 0.0647,0.1068 0.0901,0.194 l 0.12737,0.42268 h -0.38211 l -0.1117,-0.36997 c -0.0216,-0.0737 -0.049,-0.12443 -0.0823,-0.15187 -0.0314,-0.0278 -0.0784,-0.0416 -0.13913,-0.0416 h -0.12346"
       style="fill:#45658d;fill-opacity:1;fill-rule:nonzero;stroke:none;stroke-width:0.0195959"
       id="path17580" />
    <path
       d="m 170.42248,108.11061 h 1.03466 l -0.0568,0.29022 h -0.65059 l -0.0529,0.27728 h 0.61336 l -0.0588,0.29002 h -0.61139 l -0.0666,0.34096 h 0.67214 l -0.0549,0.29022 h -1.05818 l 0.29002,-1.4887"
       style="fill:#45658d;fill-opacity:1;fill-rule:nonzero;stroke:none;stroke-width:0.0195959"
       id="path17582" />
    <path
       d="m 172.0607,108.38888 -0.0803,0.41582 h 0.21163 c 0.0901,0 0.15873,-0.0214 0.20771,-0.0639 0.0471,-0.0425 0.0705,-0.10424 0.0705,-0.18537 0,-0.0539 -0.0157,-0.0952 -0.0509,-0.12365 -0.0333,-0.0286 -0.0823,-0.0429 -0.14696,-0.0429 z m -0.33117,-0.27827 h 0.63686 c 0.15677,0 0.28022,0.0359 0.3684,0.10719 0.0862,0.0715 0.1313,0.17068 0.1313,0.29786 0,0.0776 -0.0137,0.15147 -0.0451,0.22182 -0.0274,0.07 -0.0705,0.1313 -0.12541,0.18381 -0.0588,0.0564 -0.12934,0.0976 -0.20968,0.12326 -0.0823,0.0255 -0.18616,0.0382 -0.30961,0.0382 h -0.25279 l -0.0999,0.51654 h -0.38408 l 0.29002,-1.48869"
       style="fill:#45658d;fill-opacity:1;fill-rule:nonzero;stroke:none;stroke-width:0.0195959"
       id="path17584" />
    <path
       d="m 173.87919,107.70596 h 0.27827 l -0.31746,0.26337 h -0.20576 z m -0.74072,0.40465 h 0.38408 l -0.17245,0.89142 c -0.008,0.0319 -0.0118,0.0603 -0.0157,0.0848 -0.002,0.0247 -0.004,0.0461 -0.004,0.0649 0,0.0651 0.0177,0.11385 0.0529,0.14599 0.0333,0.0322 0.0862,0.0484 0.15481,0.0484 0.0941,0 0.1646,-0.0263 0.21555,-0.0782 0.049,-0.0523 0.0862,-0.1405 0.10974,-0.26494 l 0.1744,-0.89239 h 0.38408 l -0.1744,0.89239 c -0.0431,0.21948 -0.12542,0.3786 -0.24495,0.47717 -0.1215,0.0986 -0.29394,0.14794 -0.51929,0.14794 -0.17637,0 -0.30962,-0.0376 -0.40172,-0.11306 -0.0921,-0.0754 -0.13717,-0.18499 -0.13717,-0.32843 0,-0.0241 0.002,-0.0508 0.006,-0.0803 0.002,-0.0296 0.008,-0.0641 0.0157,-0.10328 l 0.17244,-0.89239"
       style="fill:#45658d;fill-opacity:1;fill-rule:nonzero;stroke:none;stroke-width:0.0195959"
       id="path17586" />
    <path
       d="m 175.19212,108.68712 c 0.0686,0 0.12345,-0.0174 0.16068,-0.0519 0.0392,-0.0347 0.0588,-0.0821 0.0588,-0.14265 0,-0.0392 -0.0137,-0.069 -0.0412,-0.0898 -0.0274,-0.0206 -0.0647,-0.0309 -0.11561,-0.0309 h -0.21359 l -0.0627,0.3153 z m -0.11366,0.65098 c 0.0882,0 0.15677,-0.021 0.2038,-0.0627 0.047,-0.0419 0.0705,-0.10209 0.0705,-0.18048 0,-0.05 -0.0157,-0.087 -0.049,-0.11091 -0.0333,-0.0239 -0.0823,-0.0357 -0.14893,-0.0357 h -0.22731 l -0.0764,0.38976 z m 0.45463,-0.53536 c 0.0666,0.0184 0.11561,0.0525 0.15089,0.10209 0.0372,0.0496 0.0549,0.11072 0.0549,0.18381 0,0.16049 -0.0608,0.28551 -0.18029,0.37546 -0.11953,0.0901 -0.2861,0.13521 -0.50165,0.13521 h -0.63687 l 0.29002,-1.4887 h 0.57416 c 0.17636,0 0.30765,0.0261 0.39387,0.078 0.0843,0.0517 0.12542,0.13189 0.12542,0.24005 0,0.0911 -0.0235,0.17107 -0.0745,0.23986 -0.049,0.069 -0.11562,0.11365 -0.19596,0.13423"
       style="fill:#45658d;fill-opacity:1;fill-rule:nonzero;stroke:none;stroke-width:0.0195959"
       id="path17588" />
    <path
       d="m 176.17779,108.11061 h 0.38408 l -0.23319,1.19848 h 0.67213 l -0.0549,0.29022 h -1.05817 l 0.29001,-1.4887"
       style="fill:#45658d;fill-opacity:1;fill-rule:nonzero;stroke:none;stroke-width:0.0195959"
       id="path17590" />
    <path
       d="m 177.39077,108.11061 h 0.38409 l -0.29002,1.4887 h -0.38408 l 0.29001,-1.4887"
       style="fill:#45658d;fill-opacity:1;fill-rule:nonzero;stroke:none;stroke-width:0.0195959"
       id="path17592" />
    <path
       d="m 178.96824,109.52955 c -0.0921,0.0326 -0.18028,0.057 -0.26454,0.0737 -0.0843,0.0167 -0.16461,0.0249 -0.24103,0.0249 -0.19988,0 -0.36056,-0.0547 -0.4801,-0.1644 -0.11953,-0.10974 -0.17832,-0.25494 -0.17832,-0.43562 0,-0.11914 0.0177,-0.23123 0.0568,-0.33666 0.0372,-0.10523 0.0941,-0.20144 0.16656,-0.28865 0.0882,-0.10229 0.19204,-0.18106 0.31549,-0.23632 0.1215,-0.055 0.25475,-0.0825 0.39584,-0.0825 0.0764,0 0.15481,0.009 0.23319,0.0272 0.0764,0.0184 0.15677,0.046 0.23711,0.0833 l -0.0627,0.30805 c -0.0627,-0.0486 -0.12737,-0.0839 -0.19203,-0.1068 -0.0647,-0.0225 -0.13326,-0.0339 -0.20772,-0.0339 -0.15285,0 -0.28218,0.0592 -0.38604,0.17774 -0.10386,0.11816 -0.15481,0.26611 -0.15481,0.44346 0,0.11443 0.0313,0.20418 0.096,0.26924 0.0627,0.0651 0.15089,0.0976 0.26455,0.0976 0.0666,0 0.13717,-0.0119 0.21359,-0.0363 0.0745,-0.0241 0.15873,-0.0621 0.25279,-0.11405 l -0.0647,0.33"
       style="fill:#45658d;fill-opacity:1;fill-rule:nonzero;stroke:none;stroke-width:0.0195959"
       id="path17594" />
    <path
       d="m 179.69525,109.05788 h 0.3978 l -0.0882,-0.57338 z m 0.44875,0.27022 h -0.59376 l -0.14893,0.27121 h -0.39387 l 0.84262,-1.4887 h 0.43895 l 0.26258,1.4887 h -0.36448 l -0.0431,-0.27121"
       style="fill:#45658d;fill-opacity:1;fill-rule:nonzero;stroke:none;stroke-width:0.0195959"
       id="path17596" />
    <path
       d="m 181.80964,109.05788 h 0.39976 l -0.0901,-0.57338 z m 0.45071,0.27022 h -0.59571 l -0.14698,0.27121 h -0.39387 l 0.84066,-1.4887 h 0.43895 l 0.26454,1.4887 h -0.36644 l -0.0412,-0.27121"
       style="fill:#45658d;fill-opacity:1;fill-rule:nonzero;stroke:none;stroke-width:0.0195959"
       id="path17598" />
    <path
       d="m 183.49881,108.7706 c 0.0862,0 0.15285,-0.02 0.19792,-0.0606 0.0451,-0.0405 0.0666,-0.10014 0.0666,-0.17852 0,-0.0492 -0.0157,-0.0852 -0.0451,-0.10817 -0.0313,-0.0229 -0.0804,-0.0345 -0.14698,-0.0345 h -0.15872 l -0.0745,0.38173 z m -0.21163,0.26533 -0.1117,0.56338 h -0.38408 l 0.29002,-1.4887 h 0.56827 c 0.16265,0 0.28807,0.0308 0.37233,0.0919 0.0843,0.0611 0.12541,0.15129 0.12541,0.27023 0,0.12013 -0.0333,0.21928 -0.0999,0.29708 -0.0666,0.0778 -0.1548,0.12228 -0.26846,0.13345 0.0509,0.0108 0.0941,0.0372 0.12933,0.0794 0.0333,0.0422 0.0647,0.1068 0.0901,0.194 l 0.12542,0.42268 h -0.38016 l -0.1117,-0.36997 c -0.0235,-0.0737 -0.0509,-0.12443 -0.0823,-0.15187 -0.0333,-0.0278 -0.0803,-0.0416 -0.14109,-0.0416 h -0.12149"
       style="fill:#45658d;fill-opacity:1;fill-rule:nonzero;stroke:none;stroke-width:0.0195959"
       id="path17600" />
    <path
       d="m 185.62496,109.48859 c -0.098,0.0472 -0.19792,0.0823 -0.30373,0.10524 -0.10386,0.0229 -0.21556,0.0343 -0.33313,0.0343 -0.21164,0 -0.3782,-0.0535 -0.4997,-0.16088 -0.12149,-0.10739 -0.18028,-0.25377 -0.18028,-0.43914 0,-0.12033 0.0177,-0.23339 0.0568,-0.33862 0.0372,-0.10543 0.0941,-0.20145 0.16853,-0.28865 0.0921,-0.10621 0.19988,-0.18577 0.32529,-0.23828 0.12345,-0.0525 0.26651,-0.0786 0.42719,-0.0786 0.0882,0 0.17833,0.009 0.26846,0.0278 0.0902,0.0186 0.18029,0.046 0.26651,0.0827 l -0.0588,0.30805 c -0.0803,-0.0472 -0.15872,-0.0825 -0.23711,-0.10562 -0.0784,-0.0233 -0.15481,-0.035 -0.23319,-0.035 -0.17244,0 -0.31157,0.0572 -0.41935,0.17146 -0.10778,0.11445 -0.16069,0.26142 -0.16069,0.44091 0,0.11895 0.0313,0.21144 0.0941,0.27728 0.0627,0.0656 0.15089,0.0984 0.26455,0.0984 0.0372,0 0.0745,-0.002 0.1117,-0.007 0.0372,-0.005 0.0745,-0.0126 0.11365,-0.0233 l 0.0568,-0.28904 h -0.23515 l 0.049,-0.25729 h 0.59572 l -0.13718,0.71584"
       style="fill:#45658d;fill-opacity:1;fill-rule:nonzero;stroke:none;stroke-width:0.0195959"
       id="path17602" />
    <path
       d="m 186.15405,108.11061 h 1.03466 l -0.0568,0.29022 h -0.65059 l -0.0529,0.27728 h 0.61335 l -0.0588,0.29002 h -0.61139 l -0.0666,0.34096 h 0.67214 l -0.0549,0.29022 h -1.05817 l 0.29001,-1.4887"
       style="fill:#45658d;fill-opacity:1;fill-rule:nonzero;stroke:none;stroke-width:0.0195959"
       id="path17604" />
    <path
       d="m 187.46109,108.11061 h 0.42915 l 0.34097,1.03114 0.20184,-1.03114 h 0.36252 l -0.29001,1.4887 h -0.42916 l -0.34096,-1.03094 -0.19988,1.03094 h -0.36449 l 0.29002,-1.4887"
       style="fill:#45658d;fill-opacity:1;fill-rule:nonzero;stroke:none;stroke-width:0.0195959"
       id="path17606" />
    <path
       d="m 188.90531,108.11061 h 1.37171 l -0.0568,0.29022 h -0.49381 l -0.23319,1.19848 h -0.38408 l 0.23319,-1.19848 h -0.49382 l 0.0568,-0.29022"
       style="fill:#45658d;fill-opacity:1;fill-rule:nonzero;stroke:none;stroke-width:0.0195959"
       id="path17608" />
    <path
       d="m 190.38872,108.11061 h 0.38212 l -0.29002,1.4887 h -0.38212 l 0.29002,-1.4887"
       style="fill:#45658d;fill-opacity:1;fill-rule:nonzero;stroke:none;stroke-width:0.0195959"
       id="path17610" />
    <path
       d="m 191.06086,108.11061 h 0.42718 l 0.34098,1.03114 0.20183,-1.03114 h 0.36253 l -0.29002,1.4887 h -0.42916 l -0.34096,-1.03094 -0.19988,1.03094 h -0.36448 l 0.29198,-1.4887"
       style="fill:#45658d;fill-opacity:1;fill-rule:nonzero;stroke:none;stroke-width:0.0195959"
       id="path17612" />
    <path
       d="m 192.90091,109.05788 h 0.39975 l -0.0901,-0.57338 z m 0.4507,0.27022 h -0.59571 l -0.14697,0.27121 h -0.39388 l 0.84067,-1.4887 h 0.43894 l 0.26455,1.4887 h -0.36449 l -0.0431,-0.27121"
       style="fill:#45658d;fill-opacity:1;fill-rule:nonzero;stroke:none;stroke-width:0.0195959"
       id="path17614" />
  </g>
</svg>
