<?xml version="1.0" encoding="UTF-8" standalone="no"?>
<svg
   width="39.999969mm"
   height="21.376869mm"
   viewBox="0 0 39.99997 21.376869"
   version="1.1"
   id="svg976"
   inkscape:version="1.2.2 (b0a8486541, 2022-12-01)"
   sodipodi:docname="sihLiber.svg"
   xmlns:inkscape="http://www.inkscape.org/namespaces/inkscape"
   xmlns:sodipodi="http://sodipodi.sourceforge.net/DTD/sodipodi-0.dtd"
   xmlns="http://www.w3.org/2000/svg"
   xmlns:svg="http://www.w3.org/2000/svg"
   xmlns:rdf="http://www.w3.org/1999/02/22-rdf-syntax-ns#"
   xmlns:cc="http://creativecommons.org/ns#"
   xmlns:dc="http://purl.org/dc/elements/1.1/">
  <defs
     id="defs970" />
  <sodipodi:namedview
     id="base"
     pagecolor="#ffffff"
     bordercolor="#666666"
     borderopacity="1.0"
     inkscape:pageopacity="0.0"
     inkscape:pageshadow="2"
     inkscape:zoom="3.8124617"
     inkscape:cx="99.017388"
     inkscape:cy="34.49215"
     inkscape:document-units="mm"
     inkscape:current-layer="layer1"
     inkscape:document-rotation="0"
     showgrid="false"
     fit-margin-top="0"
     fit-margin-left="0"
     fit-margin-right="0"
     fit-margin-bottom="0"
     inkscape:window-width="1920"
     inkscape:window-height="1062"
     inkscape:window-x="0"
     inkscape:window-y="1"
     inkscape:window-maximized="1"
     showguides="false"
     inkscape:showpageshadow="2"
     inkscape:pagecheckerboard="0"
     inkscape:deskcolor="#d1d1d1" />
  <metadata
     id="metadata973">
    <rdf:RDF>
      <cc:Work
         rdf:about="">
        <dc:format>image/svg+xml</dc:format>
        <dc:type
           rdf:resource="http://purl.org/dc/dcmitype/StillImage" />
      </cc:Work>
    </rdf:RDF>
  </metadata>
  <g
     inkscape:label="Layer 1"
     inkscape:groupmode="layer"
     id="layer1"
     transform="translate(-455.75353,-213.81196)">
    <path
       d="m 481.63121,225.97829 c -0.97101,0 -1.71853,-0.36853 -2.46633,-1.01548 l -0.826,0.98206 c 0.93759,0.83703 2.06469,1.25002 3.25891,1.25002 1.64064,0 2.79011,-0.87045 2.79011,-2.34398 0,-1.30554 -0.85941,-1.89698 -2.5111,-2.29893 -1.49562,-0.35719 -1.85252,-0.62516 -1.85252,-1.23899 0,-0.52459 0.46851,-0.93729 1.27212,-0.93729 0.71439,0 1.41744,0.279 2.12077,0.80361 l 0.73648,-1.03787 c -0.79227,-0.6362 -1.69645,-0.98235 -2.83487,-0.98235 -1.55113,0 -2.66746,0.91521 -2.66746,2.27685 0,1.45086 0.93759,1.94174 2.60032,2.34369 1.45115,0.33481 1.76359,0.6362 1.76359,1.20556 0,0.60249 -0.53565,0.9931 -1.38402,0.9931"
       style="fill:#45658d;fill-opacity:1;fill-rule:nonzero;stroke:none;stroke-width:0.0290637"
       id="path310"
       inkscape:export-filename="sihLiber.png"
       inkscape:export-xdpi="150"
       inkscape:export-ydpi="150" />
    <path
       d="m 486.899,219.27099 h -1.37268 v 7.8123 h 1.37268 v -7.8123"
       style="fill:#45658d;fill-opacity:1;fill-rule:nonzero;stroke:none;stroke-width:0.0290637"
       id="path312" />
    <path
       d="m 493.52813,227.08329 h 1.37296 v -7.8123 h -1.37296 v 3.24757 h -3.72771 v -3.24757 h -1.37267 v 7.8123 h 1.37267 v -3.29233 h 3.72771 v 3.29233"
       style="fill:#45658d;fill-opacity:1;fill-rule:nonzero;stroke:none;stroke-width:0.0290637"
       id="path314" />
    <path
       d="m 478.83703,229.97135 c -0.1084,0 -0.18658,-0.0369 -0.26796,-0.11045 l -0.0546,0.0648 c 0.0939,0.0834 0.19532,0.12468 0.31912,0.12468 0.1552,0 0.26652,-0.0869 0.26652,-0.22176 0,-0.12061 -0.0802,-0.18397 -0.25431,-0.22204 -0.17176,-0.0369 -0.21188,-0.0782 -0.21188,-0.15287 0,-0.0712 0.0645,-0.12731 0.16625,-0.12731 0.0802,0 0.15287,0.0259 0.22524,0.0849 l 0.0515,-0.068 c -0.0793,-0.0637 -0.16101,-0.0959 -0.27465,-0.0959 -0.14823,0 -0.25663,0.0892 -0.25663,0.21419 0,0.12934 0.0825,0.18747 0.26215,0.22641 0.16421,0.0346 0.20316,0.0759 0.20316,0.14939 0,0.0793 -0.0692,0.13398 -0.17381,0.13398"
       style="fill:#45658d;fill-opacity:1;fill-rule:nonzero;stroke:none;stroke-width:0.0290637"
       id="path316" />
    <path
       d="m 479.93361,229.95885 h -0.48188 v -0.27291 h 0.42636 v -0.0805 h -0.42636 v -0.26652 h 0.47635 v -0.0802 h -0.56412 v 0.78066 h 0.56965 v -0.0805"
       style="fill:#45658d;fill-opacity:1;fill-rule:nonzero;stroke:none;stroke-width:0.0290637"
       id="path318" />
    <path
       d="m 480.28324,229.65687 v -0.31708 h 0.24094 c 0.12614,0 0.19967,0.0582 0.19967,0.1552 0,0.10143 -0.0837,0.16188 -0.20054,0.16188 z m 0.31796,0.0634 c 0.12265,-0.0221 0.21187,-0.0979 0.21187,-0.22845 0,-0.14066 -0.11015,-0.23309 -0.28221,-0.23309 h -0.33568 v 0.78066 h 0.0881 v -0.30343 h 0.22321 l 0.2264,0.30343 h 0.10813 l -0.23978,-0.31912"
       style="fill:#45658d;fill-opacity:1;fill-rule:nonzero;stroke:none;stroke-width:0.0290637"
       id="path320" />
    <path
       d="m 481.65127,229.2587 -0.27872,0.67253 -0.27785,-0.67253 h -0.0982 l 0.33569,0.78618 h 0.0782 l 0.33569,-0.78618 h -0.0947"
       style="fill:#45658d;fill-opacity:1;fill-rule:nonzero;stroke:none;stroke-width:0.0290637"
       id="path322" />
    <path
       d="m 482.08025,230.03936 v -0.78066 h -0.0881 v 0.78066 h 0.0881"
       style="fill:#45658d;fill-opacity:1;fill-rule:nonzero;stroke:none;stroke-width:0.0290637"
       id="path324" />
    <path
       d="m 483.00389,229.85858 c -0.0747,0.0715 -0.14503,0.11277 -0.25198,0.11277 -0.17177,0 -0.30227,-0.14155 -0.30227,-0.32349 0,-0.18193 0.12934,-0.32144 0.30227,-0.32144 0.10579,0 0.17932,0.0447 0.2453,0.10725 l 0.0601,-0.0648 c -0.0782,-0.0736 -0.16275,-0.12381 -0.30459,-0.12381 -0.2296,0 -0.39468,0.18193 -0.39468,0.40515 0,0.22524 0.16625,0.40252 0.39149,0.40252 0.14182,0 0.23076,-0.0546 0.31214,-0.13718 l -0.0578,-0.0569"
       style="fill:#45658d;fill-opacity:1;fill-rule:nonzero;stroke:none;stroke-width:0.0290637"
       id="path326" />
    <path
       d="m 483.39596,230.03936 v -0.78066 h -0.0881 v 0.78066 h 0.0881"
       style="fill:#45658d;fill-opacity:1;fill-rule:nonzero;stroke:none;stroke-width:0.0290637"
       id="path328" />
    <path
       d="m 483.76536,229.64786 c 0,-0.17844 0.12729,-0.32144 0.30575,-0.32144 0.17845,0 0.30749,0.14532 0.30749,0.32377 0,0.17845 -0.12701,0.32116 -0.30546,0.32116 -0.17845,0 -0.30778,-0.14503 -0.30778,-0.32349 z m 0.70479,0 c 0,-0.21652 -0.15927,-0.40282 -0.39701,-0.40282 -0.23745,0 -0.39934,0.18863 -0.39934,0.40515 0,0.21623 0.15957,0.40253 0.39731,0.40253 0.23716,0 0.39904,-0.18833 0.39904,-0.40486"
       style="fill:#45658d;fill-opacity:1;fill-rule:nonzero;stroke:none;stroke-width:0.0290637"
       id="path330" />
    <path
       d="m 485.25516,229.2587 h -0.0881 v 0.78066 h 0.0881 v -0.78066"
       style="fill:#45658d;fill-opacity:1;fill-rule:nonzero;stroke:none;stroke-width:0.0290637"
       id="path332" />
    <path
       d="m 486.22821,230.03936 v -0.78066 h -0.086 v 0.62545 l -0.49176,-0.62545 h -0.0825 v 0.78066 h 0.0857 v -0.64028 l 0.50425,0.64028 h 0.0704"
       style="fill:#45658d;fill-opacity:1;fill-rule:nonzero;stroke:none;stroke-width:0.0290637"
       id="path334" />
    <path
       d="m 486.47729,229.33979 h 0.26215 v 0.69957 h 0.0892 v -0.69957 h 0.26215 v -0.0811 h -0.61353 v 0.0811"
       style="fill:#45658d;fill-opacity:1;fill-rule:nonzero;stroke:none;stroke-width:0.0290637"
       id="path336" />
    <path
       d="m 487.42825,229.68594 h 0.42607 v -0.0805 h -0.42607 v -0.26652 h 0.47635 v -0.0802 h -0.56442 v 0.78066 h 0.56965 v -0.0805 h -0.48158 v -0.27291"
       style="fill:#45658d;fill-opacity:1;fill-rule:nonzero;stroke:none;stroke-width:0.0290637"
       id="path338" />
    <path
       d="m 488.25947,229.65687 v -0.31708 h 0.24123 c 0.12584,0 0.19937,0.0582 0.19937,0.1552 0,0.10143 -0.0837,0.16188 -0.20054,0.16188 z m 0.53012,-0.16508 c 0,-0.14066 -0.11045,-0.23309 -0.2825,-0.23309 h -0.33568 v 0.78066 h 0.0881 v -0.30343 h 0.2232 l 0.22641,0.30343 h 0.10812 l -0.23978,-0.31912 c 0.12265,-0.0221 0.21217,-0.0979 0.21217,-0.22845"
       style="fill:#45658d;fill-opacity:1;fill-rule:nonzero;stroke:none;stroke-width:0.0290637"
       id="path340" />
    <path
       d="m 489.6365,229.88415 -0.49204,-0.62545 h -0.0822 v 0.78066 h 0.0857 v -0.64028 l 0.50426,0.64028 h 0.0704 v -0.78066 h -0.086 v 0.62545"
       style="fill:#45658d;fill-opacity:1;fill-rule:nonzero;stroke:none;stroke-width:0.0290637"
       id="path342" />
    <path
       d="m 490.17796,229.75366 0.17845,-0.39817 0.17729,0.39817 z m 0.13834,-0.50077 -0.35574,0.78647 h 0.0904 l 0.0924,-0.20636 h 0.42519 l 0.0915,0.20636 h 0.0947 l -0.35603,-0.78647 h -0.0825"
       style="fill:#45658d;fill-opacity:1;fill-rule:nonzero;stroke:none;stroke-width:0.0290637"
       id="path344" />
    <path
       d="m 491.30621,229.97135 c -0.17177,0 -0.30226,-0.14155 -0.30226,-0.32349 0,-0.18193 0.12933,-0.32144 0.30226,-0.32144 0.10608,0 0.17961,0.0447 0.24529,0.10725 l 0.0601,-0.0648 c -0.0779,-0.0736 -0.16246,-0.12381 -0.30429,-0.12381 -0.2296,0 -0.39469,0.18193 -0.39469,0.40515 0,0.22524 0.16595,0.40252 0.39149,0.40252 0.14125,0 0.23077,-0.0546 0.31214,-0.13718 l -0.0582,-0.0569 c -0.0744,0.0715 -0.14475,0.11277 -0.25199,0.11277"
       style="fill:#45658d;fill-opacity:1;fill-rule:nonzero;stroke:none;stroke-width:0.0290637"
       id="path346" />
    <path
       d="m 491.86219,230.03936 h 0.0884 v -0.78066 h -0.0884 v 0.78066"
       style="fill:#45658d;fill-opacity:1;fill-rule:nonzero;stroke:none;stroke-width:0.0290637"
       id="path348" />
    <path
       d="m 492.62744,229.97135 c -0.17845,0 -0.30778,-0.14503 -0.30778,-0.32349 0,-0.17844 0.12729,-0.32144 0.30575,-0.32144 0.17844,0 0.30778,0.14532 0.30778,0.32377 0,0.17845 -0.1273,0.32116 -0.30575,0.32116 z m 0,-0.72631 c -0.23745,0 -0.39905,0.18863 -0.39905,0.40515 0,0.21623 0.15928,0.40253 0.39702,0.40253 0.23745,0 0.39933,-0.18833 0.39933,-0.40486 0,-0.21652 -0.15956,-0.40282 -0.3973,-0.40282"
       style="fill:#45658d;fill-opacity:1;fill-rule:nonzero;stroke:none;stroke-width:0.0290637"
       id="path350" />
    <path
       d="m 493.86933,229.88415 -0.49175,-0.62545 h -0.0826 v 0.78066 h 0.0857 v -0.64028 l 0.50455,0.64028 h 0.0704 v -0.78066 h -0.0863 v 0.62545"
       style="fill:#45658d;fill-opacity:1;fill-rule:nonzero;stroke:none;stroke-width:0.0290637"
       id="path352" />
    <path
       d="m 494.41107,229.75366 0.17846,-0.39817 0.17728,0.39817 z m 0.13806,-0.50077 -0.35574,0.78647 h 0.0904 l 0.0927,-0.20636 h 0.4252 l 0.0913,0.20636 h 0.0948 l -0.35603,-0.78647 h -0.0825"
       style="fill:#45658d;fill-opacity:1;fill-rule:nonzero;stroke:none;stroke-width:0.0290637"
       id="path354" />
    <path
       d="m 495.31409,229.95798 v -0.69928 h -0.0881 v 0.78066 h 0.52751 v -0.0814 h -0.43944"
       style="fill:#45658d;fill-opacity:1;fill-rule:nonzero;stroke:none;stroke-width:0.0290637"
       id="path356" />
    <path
       d="m 478.84663,231.35303 h -0.18281 v -0.61819 h 0.18281 c 0.19763,0 0.32376,0.13632 0.32376,0.31041 0,0.1738 -0.12613,0.30778 -0.32376,0.30778 z m 0,-0.69927 h -0.27087 v 0.78065 h 0.27087 c 0.24558,0 0.41502,-0.17061 0.41502,-0.39149 0,-0.22088 -0.16944,-0.38916 -0.41502,-0.38916"
       style="fill:#45658d;fill-opacity:1;fill-rule:nonzero;stroke:none;stroke-width:0.0290637"
       id="path358" />
    <path
       d="m 479.6203,231.08099 h 0.42607 v -0.0805 h -0.42607 v -0.26651 h 0.47606 v -0.0803 h -0.56412 v 0.78065 h 0.56994 v -0.0805 h -0.48188 v -0.27291"
       style="fill:#45658d;fill-opacity:1;fill-rule:nonzero;stroke:none;stroke-width:0.0290637"
       id="path360" />
    <path
       d="m 480.87004,230.65376 h -0.0881 v 0.78065 h 0.52751 v -0.0814 h -0.43944 v -0.69927"
       style="fill:#45658d;fill-opacity:1;fill-rule:nonzero;stroke:none;stroke-width:0.0290637"
       id="path362" />
    <path
       d="m 481.70736,231.14871 0.17845,-0.39817 0.17729,0.39817 z m 0.13805,-0.50077 -0.35573,0.78647 h 0.0904 l 0.0927,-0.20635 h 0.42491 l 0.0913,0.20635 h 0.095 l -0.35602,-0.78647 h -0.0825"
       style="fill:#45658d;fill-opacity:1;fill-rule:nonzero;stroke:none;stroke-width:0.0290637"
       id="path364" />
    <path
       d="m 483.47908,231.00049 h -0.45048 v -0.34673 h -0.0881 v 0.78065 h 0.0881 v -0.35138 h 0.45048 v 0.35138 h 0.0884 v -0.78065 h -0.0884 v 0.34673"
       style="fill:#45658d;fill-opacity:1;fill-rule:nonzero;stroke:none;stroke-width:0.0290637"
       id="path366" />
    <path
       d="m 484.23735,231.3664 c -0.17845,0 -0.30808,-0.14503 -0.30808,-0.32348 0,-0.17845 0.1273,-0.32144 0.30576,-0.32144 0.17844,0 0.30778,0.14531 0.30778,0.32377 0,0.17845 -0.12701,0.32115 -0.30546,0.32115 z m 0,-0.7263 c -0.23774,0 -0.39962,0.18862 -0.39962,0.40515 0,0.21623 0.15985,0.40253 0.3973,0.40253 0.23745,0 0.39933,-0.18833 0.39933,-0.40486 0,-0.21652 -0.15956,-0.40282 -0.39701,-0.40282"
       style="fill:#45658d;fill-opacity:1;fill-rule:nonzero;stroke:none;stroke-width:0.0290637"
       id="path368" />
    <path
       d="m 484.99272,231.05193 v -0.31709 h 0.24093 c 0.12614,0 0.19967,0.0582 0.19967,0.15521 0,0.10172 -0.0837,0.16188 -0.20083,0.16188 z m 0.52982,-0.16508 c 0,-0.14067 -0.11043,-0.23309 -0.28221,-0.23309 h -0.33568 v 0.78065 h 0.0881 v -0.30343 h 0.2232 l 0.22641,0.30343 h 0.10812 l -0.23978,-0.31912 c 0.12265,-0.0221 0.21187,-0.0979 0.21187,-0.22844"
       style="fill:#45658d;fill-opacity:1;fill-rule:nonzero;stroke:none;stroke-width:0.0290637"
       id="path370" />
    <path
       d="m 485.946,231.14871 0.17845,-0.39817 0.17729,0.39817 z m 0.13805,-0.50077 -0.35573,0.78647 h 0.0904 l 0.0927,-0.20635 h 0.42491 l 0.0913,0.20635 h 0.0948 l -0.35574,-0.78647 h -0.0826"
       style="fill:#45658d;fill-opacity:1;fill-rule:nonzero;stroke:none;stroke-width:0.0290637"
       id="path372" />
    <path
       d="m 466.61665,223.28351 c 0.66149,0.23309 1.13871,0.86232 1.13987,1.6014 0,0.25751 -0.0648,0.50688 -0.17525,0.73532 l 0.41677,0.41619 c 0.20578,-0.34615 0.31651,-0.74287 0.31651,-1.15151 0,-1.05152 -0.72311,-1.93389 -1.6979,-2.18384 v 0.58244"
       style="fill:#45658d;fill-opacity:1;fill-rule:nonzero;stroke:none;stroke-width:0.0290637"
       id="path374" />
    <path
       d="m 465.3919,226.44738 c -0.62631,-0.26913 -1.03233,-0.88179 -1.03088,-1.56247 8.2e-4,-0.73908 0.47839,-1.36831 1.13958,-1.6014 v -0.58244 c -0.9745,0.24995 -1.6976,1.13232 -1.6976,2.18384 0,0.90534 0.53709,1.71999 1.36977,2.07457 0.0349,0.0154 0.0712,0.0224 0.10899,0.0224 0.1116,0 0.21332,-0.0657 0.25663,-0.16886 0.0599,-0.14096 -0.006,-0.30575 -0.14649,-0.36562"
       style="fill:#45658d;fill-opacity:1;fill-rule:nonzero;stroke:none;stroke-width:0.0290637"
       id="path376" />
    <path
       d="m 468.15004,229.83619 c -0.66177,0.28018 -1.36541,0.42201 -2.09142,0.42201 -2.96303,0 -5.37357,-2.41054 -5.37357,-5.37357 0,-2.77442 2.1138,-5.06434 4.81555,-5.34452 v -1.11953 c -3.3179,0.28395 -5.93159,3.07378 -5.93159,6.46405 0,3.5786 2.9113,6.48961 6.48961,6.48961 0.87628,0 1.72609,-0.17147 2.52651,-0.51035 0.28366,-0.12003 0.41648,-0.44729 0.29645,-0.73124 -0.12032,-0.28366 -0.44729,-0.41678 -0.73154,-0.29646"
       style="fill:#45658d;fill-opacity:1;fill-rule:nonzero;stroke:none;stroke-width:0.0290637"
       id="path378" />
    <path
       d="m 466.61665,218.42058 v 1.11953 c 2.70175,0.28018 4.81585,2.5701 4.81585,5.34452 0,0.71932 -0.13951,1.41714 -0.41503,2.07485 -0.11917,0.28424 0.0148,0.61121 0.29906,0.73037 0.28453,0.11916 0.61121,-0.0151 0.73037,-0.29907 0.33278,-0.79489 0.50163,-1.63802 0.50163,-2.50615 0,-3.39027 -2.61369,-6.1801 -5.93188,-6.46405"
       style="fill:#45658d;fill-opacity:1;fill-rule:nonzero;stroke:none;stroke-width:0.0290637"
       id="path380" />
    <path
       d="m 466.58903,234.33787 h -0.002 c -0.50891,0.0279 -1.01403,0.0154 -1.50521,-0.0349 -0.2299,-0.0238 -0.43654,0.14502 -0.45891,0.37375 -0.0125,0.11044 0.0209,0.21914 0.0907,0.30546 0.0712,0.0881 0.17148,0.14096 0.28192,0.15375 0.35021,0.0349 0.70711,0.0529 1.06285,0.0529 0.18863,0 0.38103,-0.004 0.57344,-0.0154 0.23018,-0.0125 0.40863,-0.21071 0.39613,-0.4409 -0.0125,-0.22872 -0.20635,-0.40718 -0.43915,-0.39468"
       style="fill:#45658d;fill-opacity:1;fill-rule:nonzero;stroke:none;stroke-width:0.0290637"
       id="path382" />
    <path
       d="m 462.58088,233.69352 c -1.0123,-0.4005 -1.93855,-0.97043 -2.74652,-1.67581 0.007,-0.0428 0.0134,-0.0863 0.0134,-0.13107 0,-0.43683 -0.35428,-0.79083 -0.79082,-0.79083 -0.0451,0 -0.0884,0.006 -0.13108,0.0131 -0.49583,-0.56849 -0.92742,-1.19655 -1.27938,-1.87693 -0.0723,-0.13805 -0.21478,-0.22611 -0.3723,-0.22611 -0.0668,0 -0.13253,0.0169 -0.1927,0.0474 -0.0988,0.0517 -0.17147,0.13834 -0.20635,0.24559 -0.0335,0.10608 -0.0238,0.21914 0.0279,0.31941 0.3848,0.74199 0.85621,1.42702 1.39825,2.04695 -0.0206,0.0706 -0.0354,0.14386 -0.0354,0.22146 0,0.43683 0.35429,0.79083 0.79112,0.79083 0.0773,0 0.15054,-0.0145 0.22117,-0.0352 0.88063,0.77018 1.89088,1.39273 2.99588,1.82927 0.0489,0.0198 0.10027,0.0293 0.15346,0.0293 0.17292,0 0.32522,-0.10318 0.38916,-0.26477 0.0851,-0.21362 -0.0209,-0.45776 -0.2357,-0.54262"
       style="fill:#45658d;fill-opacity:1;fill-rule:nonzero;stroke:none;stroke-width:0.0290637"
       id="path384" />
    <path
       d="m 475.88417,223.70755 c -0.1116,0.008 -0.21216,0.0599 -0.28599,0.14503 -0.0727,0.0851 -0.10753,0.19269 -0.0991,0.30429 0.0183,0.24268 0.0279,0.48827 0.0279,0.72804 0,1.67407 -0.44351,3.31878 -1.28054,4.75714 -0.81204,1.39506 -1.97691,2.56836 -3.36761,3.39289 -0.095,0.0569 -0.16333,0.14794 -0.19123,0.25663 -0.0279,0.10754 -0.011,0.2203 0.0459,0.3168 0.0738,0.12672 0.21216,0.2049 0.3598,0.2049 0.0756,0 0.14794,-0.0209 0.21362,-0.0584 1.51072,-0.89574 2.77877,-2.17222 3.66347,-3.69283 0.91086,-1.56508 1.39215,-3.3551 1.39215,-5.17711 0,-0.26215 -0.01,-0.52866 -0.0293,-0.79111 -0.0165,-0.22727 -0.21768,-0.40166 -0.44903,-0.38625"
       style="fill:#45658d;fill-opacity:1;fill-rule:nonzero;stroke:none;stroke-width:0.0290637"
       id="path386" />
    <path
       d="m 474.32985,220.27426 c 0.24413,0.43799 0.45514,0.89691 0.62661,1.36715 0.0599,0.1645 0.21739,0.27466 0.39352,0.27466 0.0485,0 0.0959,-0.008 0.14358,-0.025 0.21623,-0.0797 0.32783,-0.32087 0.24966,-0.5371 -0.18834,-0.51327 -0.41707,-1.01403 -0.68359,-1.48835 -0.0738,-0.13253 -0.21332,-0.21478 -0.36561,-0.21478 -0.0709,0 -0.14068,0.018 -0.20345,0.0529 -0.20112,0.11306 -0.27349,0.36824 -0.16072,0.56907 v 0.002"
       style="fill:#45658d;fill-opacity:1;fill-rule:nonzero;stroke:none;stroke-width:0.0290637"
       id="path388" />
    <path
       d="m 470.94684,216.77413 v 0.002 c 0.73822,0.44496 1.41191,0.98904 2.00336,1.61681 0.0811,0.0851 0.18833,0.13253 0.30545,0.13253 0.10608,0 0.2081,-0.0404 0.28628,-0.11451 0.16711,-0.15752 0.17554,-0.42404 0.0181,-0.59144 -0.64463,-0.68358 -1.3782,-1.27648 -2.1792,-1.76068 -0.0654,-0.039 -0.14066,-0.0599 -0.21623,-0.0599 -0.14793,0 -0.28163,0.0753 -0.35835,0.20228 -0.0587,0.0948 -0.0753,0.20781 -0.0489,0.3168 0.0265,0.10725 0.0933,0.19938 0.1895,0.25663"
       style="fill:#45658d;fill-opacity:1;fill-rule:nonzero;stroke:none;stroke-width:0.0290637"
       id="path390" />
    <path
       d="m 456.36184,222.90539 c -0.22758,-0.0349 -0.4438,0.1212 -0.47985,0.34731 -0.0851,0.5371 -0.12846,1.08524 -0.12846,1.63221 0,0.23019 0.18833,0.41852 0.41852,0.41852 0.23134,0 0.41851,-0.18833 0.41851,-0.41852 0,-0.50338 0.0404,-1.00734 0.11859,-1.50113 0.018,-0.11015 -0.008,-0.2203 -0.0742,-0.31098 -0.0668,-0.0907 -0.16305,-0.14938 -0.2732,-0.16741"
       style="fill:#45658d;fill-opacity:1;fill-rule:nonzero;stroke:none;stroke-width:0.0290637"
       id="path392" />
    <path
       d="m 457.07738,221.16565 c 0.16188,0 0.31127,-0.0962 0.37928,-0.24414 0.73124,-1.58339 1.88623,-2.93514 3.33999,-3.90877 1.25526,-0.84111 2.68665,-1.3596 4.1811,-1.5302 0.18543,0.41329 0.59871,0.70218 1.08087,0.70218 0.65539,0 1.18638,-0.531 1.18638,-1.18638 0,-0.65509 -0.53099,-1.18638 -1.18638,-1.18638 -0.53127,0 -0.97566,0.35197 -1.12679,0.83355 -1.64471,0.17961 -3.22141,0.74781 -4.60107,1.67232 -1.58193,1.05879 -2.83748,2.52941 -3.63295,4.25346 -0.0977,0.20926 -0.006,0.45775 0.20374,0.55541 0.0558,0.025 0.11451,0.039 0.17583,0.039"
       style="fill:#45658d;fill-opacity:1;fill-rule:nonzero;stroke:none;stroke-width:0.0290637"
       id="path394" />
    <path
       d="m 469.60206,216.1016 c 0.0503,0.0209 0.10347,0.0308 0.15637,0.0308 0.17147,0 0.32348,-0.10202 0.38799,-0.26216 0.0863,-0.21361 -0.0169,-0.45774 -0.23163,-0.54436 -0.0503,-0.0209 -0.10201,-0.0305 -0.15636,-0.0305 -0.17177,0 -0.32377,0.10318 -0.38771,0.26216 -0.0866,0.21362 0.0166,0.45775 0.23134,0.54407"
       style="fill:#45658d;fill-opacity:1;fill-rule:nonzero;stroke:none;stroke-width:0.0290637"
       id="path396" />
    <path
       d="m 470.23711,227.87643 c -0.65539,0 -1.18638,0.53129 -1.18638,1.18638 0,0.6551 0.53099,1.18638 1.18638,1.18638 0.65509,0 1.18637,-0.53128 1.18637,-1.18638 0,-0.65509 -0.53128,-1.18638 -1.18637,-1.18638"
       style="fill:#e7ba61;fill-opacity:1;fill-rule:nonzero;stroke:none;stroke-width:0.0290637"
       id="path398" />
    <path
       d="m 469.00684,227.04347 -2.39019,-2.38642 v -7.25369 c 0,-0.30808 -0.24966,-0.55803 -0.55803,-0.55803 -0.30807,0 -0.55802,0.24995 -0.55802,0.55803 v 7.48127 l 2.9e-4,0.002 c -5.7e-4,0.14358 0.054,0.28715 0.16364,0.39672 l 2.55352,2.54975 c 0.109,0.10899 0.2517,0.16334 0.3944,0.16334 0.14299,0 0.28569,-0.0546 0.39469,-0.16392 0.21797,-0.21797 0.21768,-0.57139 -3e-4,-0.78908"
       style="fill:#e7ba61;fill-opacity:1;fill-rule:nonzero;stroke:none;stroke-width:0.0290637"
       id="path400" />
  </g>
</svg>
